<?xml version="1.0" encoding="UTF-8" standalone="no"?>
<!DOCTYPE svg PUBLIC "-//W3C//DTD SVG 1.1//EN"
 "http://www.w3.org/Graphics/SVG/1.1/DTD/svg11.dtd">
<!-- Generated by graphviz version 2.36.0 (20140111.2315)
 -->
<!-- Title: G Pages: 1 -->
<svg width="459pt" height="564pt"
 viewBox="0.00 0.00 459.00 564.00" xmlns="http://www.w3.org/2000/svg" xmlns:xlink="http://www.w3.org/1999/xlink">
<g id="graph0" class="graph" transform="scale(1 1) rotate(0) translate(4 560)">
<title>G</title>
<polygon fill="white" stroke="none" points="-4,4 -4,-560 455,-560 455,4 -4,4"/>
<!-- Person -->
<g id="node1" class="node"><title>Person</title>
<polygon fill="none" stroke="black" points="179.5,-479 179.5,-555 276.5,-555 276.5,-479 179.5,-479"/>
<text text-anchor="middle" x="228" y="-539.8" font-family="Times,serif" font-size="14.00">Person</text>
<polyline fill="none" stroke="black" points="179.5,-532 276.5,-532 "/>
<text text-anchor="middle" x="228" y="-516.8" font-family="Times,serif" font-size="14.00">id: Serial</text>
<text text-anchor="middle" x="228" y="-501.8" font-family="Times,serif" font-size="14.00">person: Person</text>
<text text-anchor="middle" x="228" y="-486.8" font-family="Times,serif" font-size="14.00">person: Person</text>
</g>
<!-- User -->
<g id="node2" class="node"><title>User</title>
<polygon fill="none" stroke="black" points="-0.5,-274.5 -0.5,-425.5 142.5,-425.5 142.5,-274.5 -0.5,-274.5"/>
<text text-anchor="middle" x="71" y="-410.3" font-family="Times,serif" font-size="14.00">User</text>
<polyline fill="none" stroke="black" points="-0.5,-402.5 142.5,-402.5 "/>
<text text-anchor="middle" x="71" y="-387.3" font-family="Times,serif" font-size="14.00">id: Serial</text>
<text text-anchor="middle" x="71" y="-372.3" font-family="Times,serif" font-size="14.00">created_at: DateTime</text>
<text text-anchor="middle" x="71" y="-357.3" font-family="Times,serif" font-size="14.00">updated_at: DateTime</text>
<text text-anchor="middle" x="71" y="-342.3" font-family="Times,serif" font-size="14.00">type: </text>
<text text-anchor="middle" x="71" y="-327.3" font-family="Times,serif" font-size="14.00">email: String</text>
<text text-anchor="middle" x="71" y="-312.3" font-family="Times,serif" font-size="14.00">password: BCryptHash</text>
<text text-anchor="middle" x="71" y="-297.3" font-family="Times,serif" font-size="14.00">display_name: String</text>
<text text-anchor="middle" x="71" y="-282.3" font-family="Times,serif" font-size="14.00">person_id: Integer</text>
</g>
<!-- Person&#45;&gt;User -->
<g id="edge1" class="edge"><title>Person&#45;&gt;User</title>
<path fill="none" stroke="red" d="M192.766,-478.971C179.752,-465.293 164.43,-449.191 149.127,-433.108"/>
<polygon fill="red" stroke="red" points="151.534,-430.561 142.105,-425.729 146.463,-435.386 151.534,-430.561"/>
<text text-anchor="middle" x="184" y="-448.3" font-family="Times,serif" font-size="14.00"> 1:1</text>
</g>
<!-- Company -->
<g id="node4" class="node"><title>Company</title>
<polygon fill="none" stroke="black" points="161,-289.5 161,-410.5 295,-410.5 295,-289.5 161,-289.5"/>
<text text-anchor="middle" x="228" y="-395.3" font-family="Times,serif" font-size="14.00">Company</text>
<polyline fill="none" stroke="black" points="161,-387.5 295,-387.5 "/>
<text text-anchor="middle" x="228" y="-372.3" font-family="Times,serif" font-size="14.00">id: Serial</text>
<text text-anchor="middle" x="228" y="-357.3" font-family="Times,serif" font-size="14.00">created_at: DateTime</text>
<text text-anchor="middle" x="228" y="-342.3" font-family="Times,serif" font-size="14.00">name: String</text>
<text text-anchor="middle" x="228" y="-327.3" font-family="Times,serif" font-size="14.00">description: Text</text>
<text text-anchor="middle" x="228" y="-312.3" font-family="Times,serif" font-size="14.00">owner: Person</text>
<text text-anchor="middle" x="228" y="-297.3" font-family="Times,serif" font-size="14.00">company: Company</text>
</g>
<!-- Person&#45;&gt;Company -->
<g id="edge3" class="edge"><title>Person&#45;&gt;Company</title>
<path fill="none" stroke="blue" d="M228,-478.971C228,-461.739 228,-440.658 228,-420.617"/>
<polygon fill="blue" stroke="blue" points="231.5,-420.572 228,-410.572 224.5,-420.572 231.5,-420.572"/>
<text text-anchor="middle" x="241" y="-448.3" font-family="Times,serif" font-size="14.00"> 1:m</text>
</g>
<!-- PersonalDetail -->
<g id="node6" class="node"><title>PersonalDetail</title>
<polygon fill="none" stroke="black" points="313,-282 313,-418 451,-418 451,-282 313,-282"/>
<text text-anchor="middle" x="382" y="-402.8" font-family="Times,serif" font-size="14.00">PersonalDetail</text>
<polyline fill="none" stroke="black" points="313,-395 451,-395 "/>
<text text-anchor="middle" x="382" y="-379.8" font-family="Times,serif" font-size="14.00">id: Serial</text>
<text text-anchor="middle" x="382" y="-364.8" font-family="Times,serif" font-size="14.00">created_at: DateTime</text>
<text text-anchor="middle" x="382" y="-349.8" font-family="Times,serif" font-size="14.00">updated_at: DateTime</text>
<text text-anchor="middle" x="382" y="-334.8" font-family="Times,serif" font-size="14.00">first_name: String</text>
<text text-anchor="middle" x="382" y="-319.8" font-family="Times,serif" font-size="14.00">last_name: String</text>
<text text-anchor="middle" x="382" y="-304.8" font-family="Times,serif" font-size="14.00">dob: Date</text>
<text text-anchor="middle" x="382" y="-289.8" font-family="Times,serif" font-size="14.00">person: Person</text>
</g>
<!-- Person&#45;&gt;PersonalDetail -->
<g id="edge2" class="edge"><title>Person&#45;&gt;PersonalDetail</title>
<path fill="none" stroke="red" d="M262.561,-478.971C277.357,-463.117 295.194,-444.006 312.519,-425.444"/>
<polygon fill="red" stroke="red" points="315.118,-427.789 319.382,-418.09 310,-423.013 315.118,-427.789"/>
<text text-anchor="middle" x="303" y="-448.3" font-family="Times,serif" font-size="14.00"> 1:1</text>
</g>
<!-- Location -->
<g id="node3" class="node"><title>Location</title>
<polygon fill="none" stroke="black" points="194,-1 194,-47 260,-47 260,-1 194,-1"/>
<text text-anchor="middle" x="227" y="-31.8" font-family="Times,serif" font-size="14.00">Location</text>
<polyline fill="none" stroke="black" points="194,-24 260,-24 "/>
<text text-anchor="middle" x="227" y="-8.8" font-family="Times,serif" font-size="14.00">id: Serial</text>
</g>
<!-- Branch -->
<g id="node5" class="node"><title>Branch</title>
<polygon fill="none" stroke="black" points="162,-100.5 162,-221.5 292,-221.5 292,-100.5 162,-100.5"/>
<text text-anchor="middle" x="227" y="-206.3" font-family="Times,serif" font-size="14.00">Branch</text>
<polyline fill="none" stroke="black" points="162,-198.5 292,-198.5 "/>
<text text-anchor="middle" x="227" y="-183.3" font-family="Times,serif" font-size="14.00">id: Serial</text>
<text text-anchor="middle" x="227" y="-168.3" font-family="Times,serif" font-size="14.00">telephone1: String</text>
<text text-anchor="middle" x="227" y="-153.3" font-family="Times,serif" font-size="14.00">telephone2: String</text>
<text text-anchor="middle" x="227" y="-138.3" font-family="Times,serif" font-size="14.00">fax: String</text>
<text text-anchor="middle" x="227" y="-123.3" font-family="Times,serif" font-size="14.00">company_id: Integer</text>
<text text-anchor="middle" x="227" y="-108.3" font-family="Times,serif" font-size="14.00">branch: Branch</text>
</g>
<!-- Company&#45;&gt;Branch -->
<g id="edge4" class="edge"><title>Company&#45;&gt;Branch</title>
<path fill="none" stroke="red" d="M208.672,-289.277C205.511,-273.338 203.874,-256.076 206,-240 206.358,-237.291 206.784,-234.543 207.264,-231.777"/>
<polygon fill="red" stroke="red" points="210.746,-232.206 209.221,-221.722 203.875,-230.869 210.746,-232.206"/>
<text text-anchor="middle" x="217" y="-244.3" font-family="Times,serif" font-size="14.00"> 1:1</text>
</g>
<!-- Company&#45;&gt;Branch -->
<g id="edge5" class="edge"><title>Company&#45;&gt;Branch</title>
<path fill="none" stroke="blue" d="M228.138,-289.316C228.137,-273.3 228.102,-255.99 228,-240 227.983,-237.3 227.962,-234.547 227.939,-231.767"/>
<polygon fill="blue" stroke="blue" points="231.437,-231.587 227.843,-221.62 224.437,-231.653 231.437,-231.587"/>
<text text-anchor="middle" x="242" y="-244.3" font-family="Times,serif" font-size="14.00"> 1:m</text>
</g>
<!-- Branch&#45;&gt;Location -->
<g id="edge6" class="edge"><title>Branch&#45;&gt;Location</title>
<path fill="none" stroke="red" d="M227,-100.394C227,-85.6051 227,-70.3035 227,-57.3818"/>
<polygon fill="red" stroke="red" points="230.5,-57.1507 227,-47.1508 223.5,-57.1508 230.5,-57.1507"/>
<text text-anchor="middle" x="238" y="-70.3" font-family="Times,serif" font-size="14.00"> 1:1</text>
</g>
</g>
</svg>
