<?xml version="1.0" encoding="UTF-8" standalone="no"?>
<!DOCTYPE svg PUBLIC "-//W3C//DTD SVG 1.1//EN"
 "http://www.w3.org/Graphics/SVG/1.1/DTD/svg11.dtd">
<!-- Generated by graphviz version 2.36.0 (20140111.2315)
 -->
<!-- Title: G Pages: 1 -->
<svg width="459pt" height="684pt"
 viewBox="0.00 0.00 459.00 684.00" xmlns="http://www.w3.org/2000/svg" xmlns:xlink="http://www.w3.org/1999/xlink">
<g id="graph0" class="graph" transform="scale(1 1) rotate(0) translate(4 680)">
<title>G</title>
<polygon fill="white" stroke="none" points="-4,4 -4,-680 455,-680 455,4 -4,4"/>
<!-- Person -->
<g id="node1" class="node"><title>Person</title>
<polygon fill="none" stroke="black" points="179.5,-599 179.5,-675 276.5,-675 276.5,-599 179.5,-599"/>
<text text-anchor="middle" x="228" y="-659.8" font-family="Times,serif" font-size="14.00">Person</text>
<polyline fill="none" stroke="black" points="179.5,-652 276.5,-652 "/>
<text text-anchor="middle" x="228" y="-636.8" font-family="Times,serif" font-size="14.00">id: Serial</text>
<text text-anchor="middle" x="228" y="-621.8" font-family="Times,serif" font-size="14.00">person: Person</text>
<text text-anchor="middle" x="228" y="-606.8" font-family="Times,serif" font-size="14.00">person: Person</text>
</g>
<!-- User -->
<g id="node2" class="node"><title>User</title>
<polygon fill="none" stroke="black" points="-0.5,-394.5 -0.5,-545.5 142.5,-545.5 142.5,-394.5 -0.5,-394.5"/>
<text text-anchor="middle" x="71" y="-530.3" font-family="Times,serif" font-size="14.00">User</text>
<polyline fill="none" stroke="black" points="-0.5,-522.5 142.5,-522.5 "/>
<text text-anchor="middle" x="71" y="-507.3" font-family="Times,serif" font-size="14.00">id: Serial</text>
<text text-anchor="middle" x="71" y="-492.3" font-family="Times,serif" font-size="14.00">created_at: DateTime</text>
<text text-anchor="middle" x="71" y="-477.3" font-family="Times,serif" font-size="14.00">updated_at: DateTime</text>
<text text-anchor="middle" x="71" y="-462.3" font-family="Times,serif" font-size="14.00">type: </text>
<text text-anchor="middle" x="71" y="-447.3" font-family="Times,serif" font-size="14.00">email: String</text>
<text text-anchor="middle" x="71" y="-432.3" font-family="Times,serif" font-size="14.00">password: BCryptHash</text>
<text text-anchor="middle" x="71" y="-417.3" font-family="Times,serif" font-size="14.00">display_name: String</text>
<text text-anchor="middle" x="71" y="-402.3" font-family="Times,serif" font-size="14.00">person_id: Integer</text>
</g>
<!-- Person&#45;&gt;User -->
<g id="edge1" class="edge"><title>Person&#45;&gt;User</title>
<path fill="none" stroke="red" d="M192.766,-598.971C179.752,-585.293 164.43,-569.191 149.127,-553.108"/>
<polygon fill="red" stroke="red" points="151.534,-550.561 142.105,-545.729 146.463,-555.386 151.534,-550.561"/>
<text text-anchor="middle" x="184" y="-568.3" font-family="Times,serif" font-size="14.00"> 1:1</text>
</g>
<!-- Company -->
<g id="node4" class="node"><title>Company</title>
<polygon fill="none" stroke="black" points="161,-409.5 161,-530.5 295,-530.5 295,-409.5 161,-409.5"/>
<text text-anchor="middle" x="228" y="-515.3" font-family="Times,serif" font-size="14.00">Company</text>
<polyline fill="none" stroke="black" points="161,-507.5 295,-507.5 "/>
<text text-anchor="middle" x="228" y="-492.3" font-family="Times,serif" font-size="14.00">id: Serial</text>
<text text-anchor="middle" x="228" y="-477.3" font-family="Times,serif" font-size="14.00">created_at: DateTime</text>
<text text-anchor="middle" x="228" y="-462.3" font-family="Times,serif" font-size="14.00">name: String</text>
<text text-anchor="middle" x="228" y="-447.3" font-family="Times,serif" font-size="14.00">description: Text</text>
<text text-anchor="middle" x="228" y="-432.3" font-family="Times,serif" font-size="14.00">owner: Person</text>
<text text-anchor="middle" x="228" y="-417.3" font-family="Times,serif" font-size="14.00">company: Company</text>
</g>
<!-- Person&#45;&gt;Company -->
<g id="edge3" class="edge"><title>Person&#45;&gt;Company</title>
<path fill="none" stroke="blue" d="M228,-598.971C228,-581.739 228,-560.658 228,-540.617"/>
<polygon fill="blue" stroke="blue" points="231.5,-540.572 228,-530.572 224.5,-540.572 231.5,-540.572"/>
<text text-anchor="middle" x="241" y="-568.3" font-family="Times,serif" font-size="14.00"> 1:m</text>
</g>
<!-- PersonalDetail -->
<g id="node6" class="node"><title>PersonalDetail</title>
<polygon fill="none" stroke="black" points="313,-402 313,-538 451,-538 451,-402 313,-402"/>
<text text-anchor="middle" x="382" y="-522.8" font-family="Times,serif" font-size="14.00">PersonalDetail</text>
<polyline fill="none" stroke="black" points="313,-515 451,-515 "/>
<text text-anchor="middle" x="382" y="-499.8" font-family="Times,serif" font-size="14.00">id: Serial</text>
<text text-anchor="middle" x="382" y="-484.8" font-family="Times,serif" font-size="14.00">created_at: DateTime</text>
<text text-anchor="middle" x="382" y="-469.8" font-family="Times,serif" font-size="14.00">updated_at: DateTime</text>
<text text-anchor="middle" x="382" y="-454.8" font-family="Times,serif" font-size="14.00">first_name: String</text>
<text text-anchor="middle" x="382" y="-439.8" font-family="Times,serif" font-size="14.00">last_name: String</text>
<text text-anchor="middle" x="382" y="-424.8" font-family="Times,serif" font-size="14.00">dob: Date</text>
<text text-anchor="middle" x="382" y="-409.8" font-family="Times,serif" font-size="14.00">person: Person</text>
</g>
<!-- Person&#45;&gt;PersonalDetail -->
<g id="edge2" class="edge"><title>Person&#45;&gt;PersonalDetail</title>
<path fill="none" stroke="red" d="M262.561,-598.971C277.357,-583.117 295.194,-564.006 312.519,-545.444"/>
<polygon fill="red" stroke="red" points="315.118,-547.789 319.382,-538.09 310,-543.013 315.118,-547.789"/>
<text text-anchor="middle" x="303" y="-568.3" font-family="Times,serif" font-size="14.00"> 1:1</text>
</g>
<!-- Location -->
<g id="node3" class="node"><title>Location</title>
<polygon fill="none" stroke="black" points="161.5,-1 161.5,-167 292.5,-167 292.5,-1 161.5,-1"/>
<text text-anchor="middle" x="227" y="-151.8" font-family="Times,serif" font-size="14.00">Location</text>
<polyline fill="none" stroke="black" points="161.5,-144 292.5,-144 "/>
<text text-anchor="middle" x="227" y="-128.8" font-family="Times,serif" font-size="14.00">id: Serial</text>
<text text-anchor="middle" x="227" y="-113.8" font-family="Times,serif" font-size="14.00">address: String</text>
<text text-anchor="middle" x="227" y="-98.8" font-family="Times,serif" font-size="14.00">address2: String</text>
<text text-anchor="middle" x="227" y="-83.8" font-family="Times,serif" font-size="14.00">city: String</text>
<text text-anchor="middle" x="227" y="-68.8" font-family="Times,serif" font-size="14.00">postal_code: String</text>
<text text-anchor="middle" x="227" y="-53.8" font-family="Times,serif" font-size="14.00">state: String</text>
<text text-anchor="middle" x="227" y="-38.8" font-family="Times,serif" font-size="14.00">country_code: String</text>
<text text-anchor="middle" x="227" y="-23.8" font-family="Times,serif" font-size="14.00">lat: Decimal</text>
<text text-anchor="middle" x="227" y="-8.8" font-family="Times,serif" font-size="14.00">lng: Decimal</text>
</g>
<!-- Branch -->
<g id="node5" class="node"><title>Branch</title>
<polygon fill="none" stroke="black" points="162,-220.5 162,-341.5 292,-341.5 292,-220.5 162,-220.5"/>
<text text-anchor="middle" x="227" y="-326.3" font-family="Times,serif" font-size="14.00">Branch</text>
<polyline fill="none" stroke="black" points="162,-318.5 292,-318.5 "/>
<text text-anchor="middle" x="227" y="-303.3" font-family="Times,serif" font-size="14.00">id: Serial</text>
<text text-anchor="middle" x="227" y="-288.3" font-family="Times,serif" font-size="14.00">telephone1: String</text>
<text text-anchor="middle" x="227" y="-273.3" font-family="Times,serif" font-size="14.00">telephone2: String</text>
<text text-anchor="middle" x="227" y="-258.3" font-family="Times,serif" font-size="14.00">fax: String</text>
<text text-anchor="middle" x="227" y="-243.3" font-family="Times,serif" font-size="14.00">company_id: Integer</text>
<text text-anchor="middle" x="227" y="-228.3" font-family="Times,serif" font-size="14.00">branch: Branch</text>
</g>
<!-- Company&#45;&gt;Branch -->
<g id="edge4" class="edge"><title>Company&#45;&gt;Branch</title>
<path fill="none" stroke="red" d="M208.672,-409.277C205.511,-393.338 203.874,-376.076 206,-360 206.358,-357.291 206.784,-354.543 207.264,-351.777"/>
<polygon fill="red" stroke="red" points="210.746,-352.206 209.221,-341.722 203.875,-350.869 210.746,-352.206"/>
<text text-anchor="middle" x="217" y="-364.3" font-family="Times,serif" font-size="14.00"> 1:1</text>
</g>
<!-- Company&#45;&gt;Branch -->
<g id="edge5" class="edge"><title>Company&#45;&gt;Branch</title>
<path fill="none" stroke="blue" d="M228.138,-409.316C228.137,-393.3 228.102,-375.99 228,-360 227.983,-357.3 227.962,-354.547 227.939,-351.767"/>
<polygon fill="blue" stroke="blue" points="231.437,-351.587 227.843,-341.62 224.437,-351.653 231.437,-351.587"/>
<text text-anchor="middle" x="242" y="-364.3" font-family="Times,serif" font-size="14.00"> 1:m</text>
</g>
<!-- Branch&#45;&gt;Location -->
<g id="edge6" class="edge"><title>Branch&#45;&gt;Location</title>
<path fill="none" stroke="red" d="M227,-220.434C227,-206.784 227,-191.958 227,-177.29"/>
<polygon fill="red" stroke="red" points="230.5,-177.176 227,-167.177 223.5,-177.177 230.5,-177.176"/>
<text text-anchor="middle" x="238" y="-190.3" font-family="Times,serif" font-size="14.00"> 1:1</text>
</g>
</g>
</svg>
