<?xml version="1.0" encoding="UTF-8" standalone="no"?>
<!DOCTYPE svg PUBLIC "-//W3C//DTD SVG 1.1//EN"
 "http://www.w3.org/Graphics/SVG/1.1/DTD/svg11.dtd">
<!-- Generated by graphviz version 2.36.0 (20140111.2315)
 -->
<!-- Title: G Pages: 1 -->
<svg width="460pt" height="684pt"
 viewBox="0.00 0.00 460.00 684.00" xmlns="http://www.w3.org/2000/svg" xmlns:xlink="http://www.w3.org/1999/xlink">
<g id="graph0" class="graph" transform="scale(1 1) rotate(0) translate(4 680)">
<title>G</title>
<polygon fill="white" stroke="none" points="-4,4 -4,-680 456,-680 456,4 -4,4"/>
<!-- PersonalDetail -->
<g id="node1" class="node"><title>PersonalDetail</title>
<polygon fill="none" stroke="black" points="0,-402 0,-538 138,-538 138,-402 0,-402"/>
<text text-anchor="middle" x="69" y="-522.8" font-family="Times,serif" font-size="14.00">PersonalDetail</text>
<polyline fill="none" stroke="black" points="0,-515 138,-515 "/>
<text text-anchor="middle" x="69" y="-499.8" font-family="Times,serif" font-size="14.00">id: Serial</text>
<text text-anchor="middle" x="69" y="-484.8" font-family="Times,serif" font-size="14.00">created_at: DateTime</text>
<text text-anchor="middle" x="69" y="-469.8" font-family="Times,serif" font-size="14.00">updated_at: DateTime</text>
<text text-anchor="middle" x="69" y="-454.8" font-family="Times,serif" font-size="14.00">first_name: String</text>
<text text-anchor="middle" x="69" y="-439.8" font-family="Times,serif" font-size="14.00">last_name: String</text>
<text text-anchor="middle" x="69" y="-424.8" font-family="Times,serif" font-size="14.00">dob: Date</text>
<text text-anchor="middle" x="69" y="-409.8" font-family="Times,serif" font-size="14.00">person: Person</text>
</g>
<!-- User -->
<g id="node2" class="node"><title>User</title>
<polygon fill="none" stroke="black" points="156.5,-394.5 156.5,-545.5 299.5,-545.5 299.5,-394.5 156.5,-394.5"/>
<text text-anchor="middle" x="228" y="-530.3" font-family="Times,serif" font-size="14.00">User</text>
<polyline fill="none" stroke="black" points="156.5,-522.5 299.5,-522.5 "/>
<text text-anchor="middle" x="228" y="-507.3" font-family="Times,serif" font-size="14.00">id: Serial</text>
<text text-anchor="middle" x="228" y="-492.3" font-family="Times,serif" font-size="14.00">created_at: DateTime</text>
<text text-anchor="middle" x="228" y="-477.3" font-family="Times,serif" font-size="14.00">updated_at: DateTime</text>
<text text-anchor="middle" x="228" y="-462.3" font-family="Times,serif" font-size="14.00">type: </text>
<text text-anchor="middle" x="228" y="-447.3" font-family="Times,serif" font-size="14.00">email: String</text>
<text text-anchor="middle" x="228" y="-432.3" font-family="Times,serif" font-size="14.00">password: BCryptHash</text>
<text text-anchor="middle" x="228" y="-417.3" font-family="Times,serif" font-size="14.00">display_name: String</text>
<text text-anchor="middle" x="228" y="-402.3" font-family="Times,serif" font-size="14.00">person: Person</text>
</g>
<!-- Branch -->
<g id="node3" class="node"><title>Branch</title>
<polygon fill="none" stroke="black" points="326,-235 326,-341 442,-341 442,-235 326,-235"/>
<text text-anchor="middle" x="384" y="-325.8" font-family="Times,serif" font-size="14.00">Branch</text>
<polyline fill="none" stroke="black" points="326,-318 442,-318 "/>
<text text-anchor="middle" x="384" y="-302.8" font-family="Times,serif" font-size="14.00">id: Serial</text>
<text text-anchor="middle" x="384" y="-287.8" font-family="Times,serif" font-size="14.00">telephone1: String</text>
<text text-anchor="middle" x="384" y="-272.8" font-family="Times,serif" font-size="14.00">telephone2: String</text>
<text text-anchor="middle" x="384" y="-257.8" font-family="Times,serif" font-size="14.00">fax: String</text>
<text text-anchor="middle" x="384" y="-242.8" font-family="Times,serif" font-size="14.00">branch: Branch</text>
</g>
<!-- Location -->
<g id="node4" class="node"><title>Location</title>
<polygon fill="none" stroke="black" points="318.5,-0.5 318.5,-181.5 449.5,-181.5 449.5,-0.5 318.5,-0.5"/>
<text text-anchor="middle" x="384" y="-166.3" font-family="Times,serif" font-size="14.00">Location</text>
<polyline fill="none" stroke="black" points="318.5,-158.5 449.5,-158.5 "/>
<text text-anchor="middle" x="384" y="-143.3" font-family="Times,serif" font-size="14.00">id: Serial</text>
<text text-anchor="middle" x="384" y="-128.3" font-family="Times,serif" font-size="14.00">address: String</text>
<text text-anchor="middle" x="384" y="-113.3" font-family="Times,serif" font-size="14.00">address2: String</text>
<text text-anchor="middle" x="384" y="-98.3" font-family="Times,serif" font-size="14.00">city: String</text>
<text text-anchor="middle" x="384" y="-83.3" font-family="Times,serif" font-size="14.00">postal_code: String</text>
<text text-anchor="middle" x="384" y="-68.3" font-family="Times,serif" font-size="14.00">state: String</text>
<text text-anchor="middle" x="384" y="-53.3" font-family="Times,serif" font-size="14.00">country_code: String</text>
<text text-anchor="middle" x="384" y="-38.3" font-family="Times,serif" font-size="14.00">lat: Decimal</text>
<text text-anchor="middle" x="384" y="-23.3" font-family="Times,serif" font-size="14.00">lng: Decimal</text>
<text text-anchor="middle" x="384" y="-8.3" font-family="Times,serif" font-size="14.00">branch_id: Integer</text>
</g>
<!-- Branch&#45;&gt;Location -->
<g id="edge1" class="edge"><title>Branch&#45;&gt;Location</title>
<path fill="none" stroke="red" d="M384,-235C384,-221.708 384,-206.961 384,-192.134"/>
<polygon fill="red" stroke="red" points="387.5,-191.872 384,-181.872 380.5,-191.872 387.5,-191.872"/>
<text text-anchor="middle" x="395" y="-204.3" font-family="Times,serif" font-size="14.00"> 1:1</text>
</g>
<!-- Company -->
<g id="node5" class="node"><title>Company</title>
<polygon fill="none" stroke="black" points="318,-409.5 318,-530.5 452,-530.5 452,-409.5 318,-409.5"/>
<text text-anchor="middle" x="385" y="-515.3" font-family="Times,serif" font-size="14.00">Company</text>
<polyline fill="none" stroke="black" points="318,-507.5 452,-507.5 "/>
<text text-anchor="middle" x="385" y="-492.3" font-family="Times,serif" font-size="14.00">id: Serial</text>
<text text-anchor="middle" x="385" y="-477.3" font-family="Times,serif" font-size="14.00">created_at: DateTime</text>
<text text-anchor="middle" x="385" y="-462.3" font-family="Times,serif" font-size="14.00">name: String</text>
<text text-anchor="middle" x="385" y="-447.3" font-family="Times,serif" font-size="14.00">description: Text</text>
<text text-anchor="middle" x="385" y="-432.3" font-family="Times,serif" font-size="14.00">owner: Person</text>
<text text-anchor="middle" x="385" y="-417.3" font-family="Times,serif" font-size="14.00">company: Company</text>
</g>
<!-- Company&#45;&gt;Branch -->
<g id="edge2" class="edge"><title>Company&#45;&gt;Branch</title>
<path fill="none" stroke="red" d="M365.405,-409.24C362.246,-393.301 360.676,-376.049 363,-360 363.414,-357.138 363.918,-354.23 364.492,-351.307"/>
<polygon fill="red" stroke="red" points="367.952,-351.874 366.689,-341.354 361.116,-350.365 367.952,-351.874"/>
<text text-anchor="middle" x="374" y="-364.3" font-family="Times,serif" font-size="14.00"> 1:1</text>
</g>
<!-- Company&#45;&gt;Branch -->
<g id="edge3" class="edge"><title>Company&#45;&gt;Branch</title>
<path fill="none" stroke="blue" d="M385.152,-409.316C385.151,-393.3 385.113,-375.99 385,-360 384.98,-357.169 384.956,-354.274 384.928,-351.349"/>
<polygon fill="blue" stroke="blue" points="388.428,-351.306 384.821,-341.344 381.428,-351.381 388.428,-351.306"/>
<text text-anchor="middle" x="398" y="-364.3" font-family="Times,serif" font-size="14.00"> 1:m</text>
</g>
<!-- Person -->
<g id="node6" class="node"><title>Person</title>
<polygon fill="none" stroke="black" points="179.5,-599 179.5,-675 276.5,-675 276.5,-599 179.5,-599"/>
<text text-anchor="middle" x="228" y="-659.8" font-family="Times,serif" font-size="14.00">Person</text>
<polyline fill="none" stroke="black" points="179.5,-652 276.5,-652 "/>
<text text-anchor="middle" x="228" y="-636.8" font-family="Times,serif" font-size="14.00">id: Serial</text>
<text text-anchor="middle" x="228" y="-621.8" font-family="Times,serif" font-size="14.00">person: Person</text>
<text text-anchor="middle" x="228" y="-606.8" font-family="Times,serif" font-size="14.00">person: Person</text>
</g>
<!-- Person&#45;&gt;PersonalDetail -->
<g id="edge5" class="edge"><title>Person&#45;&gt;PersonalDetail</title>
<path fill="none" stroke="red" d="M192.317,-598.971C177.04,-583.117 158.624,-564.006 140.737,-545.444"/>
<polygon fill="red" stroke="red" points="143.11,-542.863 133.651,-538.09 138.069,-547.72 143.11,-542.863"/>
<text text-anchor="middle" x="184" y="-568.3" font-family="Times,serif" font-size="14.00"> 1:1</text>
</g>
<!-- Person&#45;&gt;User -->
<g id="edge4" class="edge"><title>Person&#45;&gt;User</title>
<path fill="none" stroke="red" d="M228,-598.971C228,-586.156 228,-571.212 228,-556.15"/>
<polygon fill="red" stroke="red" points="231.5,-555.729 228,-545.729 224.5,-555.729 231.5,-555.729"/>
<text text-anchor="middle" x="239" y="-568.3" font-family="Times,serif" font-size="14.00"> 1:1</text>
</g>
<!-- Person&#45;&gt;Company -->
<g id="edge6" class="edge"><title>Person&#45;&gt;Company</title>
<path fill="none" stroke="blue" d="M263.234,-598.971C280.379,-580.952 301.528,-558.725 321.363,-537.879"/>
<polygon fill="blue" stroke="blue" points="323.958,-540.23 328.316,-530.572 318.887,-535.404 323.958,-540.23"/>
<text text-anchor="middle" x="305" y="-568.3" font-family="Times,serif" font-size="14.00"> 1:m</text>
</g>
</g>
</svg>
