<?xml version="1.0" encoding="UTF-8" standalone="no"?>
<!DOCTYPE svg PUBLIC "-//W3C//DTD SVG 1.1//EN"
 "http://www.w3.org/Graphics/SVG/1.1/DTD/svg11.dtd">
<!-- Generated by graphviz version 2.36.0 (20140111.2315)
 -->
<!-- Title: G Pages: 1 -->
<svg width="150pt" height="336pt"
 viewBox="0.00 0.00 150.00 336.00" xmlns="http://www.w3.org/2000/svg" xmlns:xlink="http://www.w3.org/1999/xlink">
<g id="graph0" class="graph" transform="scale(1 1) rotate(0) translate(4 332)">
<title>G</title>
<polygon fill="white" stroke="none" points="-4,4 -4,-332 146,-332 146,4 -4,4"/>
<!-- User -->
<g id="node1" class="node"><title>User</title>
<polygon fill="none" stroke="black" points="-0.5,-191 -0.5,-327 142.5,-327 142.5,-191 -0.5,-191"/>
<text text-anchor="middle" x="71" y="-311.8" font-family="Times,serif" font-size="14.00">User</text>
<polyline fill="none" stroke="black" points="-0.5,-304 142.5,-304 "/>
<text text-anchor="middle" x="71" y="-288.8" font-family="Times,serif" font-size="14.00">id: Serial</text>
<text text-anchor="middle" x="71" y="-273.8" font-family="Times,serif" font-size="14.00">created_at: DateTime</text>
<text text-anchor="middle" x="71" y="-258.8" font-family="Times,serif" font-size="14.00">updated_at: DateTime</text>
<text text-anchor="middle" x="71" y="-243.8" font-family="Times,serif" font-size="14.00">email: String</text>
<text text-anchor="middle" x="71" y="-228.8" font-family="Times,serif" font-size="14.00">password: BCryptHash</text>
<text text-anchor="middle" x="71" y="-213.8" font-family="Times,serif" font-size="14.00">display_name: String</text>
<text text-anchor="middle" x="71" y="-198.8" font-family="Times,serif" font-size="14.00">user: User</text>
</g>
<!-- PersonalDetail -->
<g id="node2" class="node"><title>PersonalDetail</title>
<polygon fill="none" stroke="black" points="2,-1 2,-137 140,-137 140,-1 2,-1"/>
<text text-anchor="middle" x="71" y="-121.8" font-family="Times,serif" font-size="14.00">PersonalDetail</text>
<polyline fill="none" stroke="black" points="2,-114 140,-114 "/>
<text text-anchor="middle" x="71" y="-98.8" font-family="Times,serif" font-size="14.00">id: Serial</text>
<text text-anchor="middle" x="71" y="-83.8" font-family="Times,serif" font-size="14.00">created_at: DateTime</text>
<text text-anchor="middle" x="71" y="-68.8" font-family="Times,serif" font-size="14.00">updated_at: DateTime</text>
<text text-anchor="middle" x="71" y="-53.8" font-family="Times,serif" font-size="14.00">first_name: String</text>
<text text-anchor="middle" x="71" y="-38.8" font-family="Times,serif" font-size="14.00">last_name: String</text>
<text text-anchor="middle" x="71" y="-23.8" font-family="Times,serif" font-size="14.00">dob: Date</text>
<text text-anchor="middle" x="71" y="-8.8" font-family="Times,serif" font-size="14.00">user: User</text>
</g>
<!-- User&#45;&gt;PersonalDetail -->
<g id="edge1" class="edge"><title>User&#45;&gt;PersonalDetail</title>
<path fill="none" stroke="red" d="M71,-190.924C71,-176.838 71,-161.871 71,-147.442"/>
<polygon fill="red" stroke="red" points="74.5001,-147.05 71,-137.05 67.5001,-147.05 74.5001,-147.05"/>
<text text-anchor="middle" x="82" y="-160.3" font-family="Times,serif" font-size="14.00"> 1:1</text>
</g>
</g>
</svg>
